# xmcd CD database file
#
# Track frame offsets:
#	150
#	36668
#	65075
#	89552
#	115028
#	138772
#	171300
#	198608
#	226650
#	258670
#	278063
#
# Disc length: 4029 seconds
#
# Revision: 1
# Processed by: cddbd v1.5.1PL0 Copyright (c) Steve Scherf et al.
# Submitted via: CDex 1.51
#
DISCID=a30fbb0b
DTITLE=Largo Feat. Gast Waltzing - Long Journey
DYEAR=2005
DGENRE=Jazz
TTITLE0=Long Journey
TTITLE1=Fun Time
TTITLE2=Your Smile
TTITLE3=Be Nu
TTITLE4=Nothing Compares 2U
TTITLE5=5 Stones
TTITLE6=4 Ever
TTITLE7=My Dreams
TTITLE8=Take Another 5
TTITLE9=Ne Me Quitta Pas
TTITLE10=Your Smile (Acoustic)
EXTD=YEAR: 2005
EXTT0=
EXTT1=
EXTT2=
EXTT3=
EXTT4=
EXTT5=
EXTT6=
EXTT7=
EXTT8=
EXTT9=
EXTT10=
PLAYORDER=
